<mxfile host="app.diagrams.net" modified="2024-02-06T05:20:38.634Z" agent="Mozilla/5.0 (X11; Linux x86_64) AppleWebKit/537.36 (KHTML, like Gecko) Chrome/119.0.0.0 Safari/537.36" version="23.1.1" etag="O2RkF9DpYa8GnfpQBzsI" type="github">
  <diagram name="Halaman-1" id="W0ly78K99Vsl9GGc1GK2">
    <mxGraphModel>
      <root>
        <mxCell id="0" />
        <mxCell id="1" parent="0" />
      </root>
    </mxGraphModel>
  </diagram>
</mxfile>
